<mxfile host="app.diagrams.net" modified="2022-05-25T03:57:22.539Z" agent="5.0 (Windows NT 10.0; Win64; x64) AppleWebKit/537.36 (KHTML, like Gecko) Chrome/101.0.4951.64 Safari/537.36 Edg/101.0.1210.53" etag="FGHxUvHoDs3RFRS8Q8n4" version="18.1.1" type="github">
  <diagram id="jNxjpUQQpA3MemUOhX1U" name="第 1 页">
    <mxGraphModel dx="2188" dy="1172" grid="1" gridSize="10" guides="1" tooltips="1" connect="1" arrows="1" fold="1" page="1" pageScale="1" pageWidth="827" pageHeight="1169" math="0" shadow="0">
      <root>
        <mxCell id="0" />
        <mxCell id="1" parent="0" />
        <mxCell id="YIsgDD-WaApSgktLFnAi-104" value="&lt;font style=&quot;font-size: 22px;&quot;&gt;分区恢复功能IO操作校验过程&lt;/font&gt;" style="text;html=1;align=center;verticalAlign=middle;resizable=0;points=[];autosize=1;strokeColor=none;fillColor=none;strokeWidth=2;" vertex="1" parent="1">
          <mxGeometry x="239" y="1060" width="300" height="20" as="geometry" />
        </mxCell>
        <mxCell id="YIsgDD-WaApSgktLFnAi-135" value="" style="group" vertex="1" connectable="0" parent="1">
          <mxGeometry x="1068" y="160" width="346" height="750" as="geometry" />
        </mxCell>
        <mxCell id="YIsgDD-WaApSgktLFnAi-72" value="Recovery start" style="strokeWidth=2;html=1;shape=mxgraph.flowchart.start_1;whiteSpace=wrap;strokeColor=#97D077;" vertex="1" parent="YIsgDD-WaApSgktLFnAi-135">
          <mxGeometry x="25" width="100" height="60" as="geometry" />
        </mxCell>
        <mxCell id="YIsgDD-WaApSgktLFnAi-105" value="存在备份分区？" style="rhombus;whiteSpace=wrap;html=1;strokeWidth=2;" vertex="1" parent="YIsgDD-WaApSgktLFnAi-135">
          <mxGeometry y="100" width="150" height="80" as="geometry" />
        </mxCell>
        <mxCell id="YIsgDD-WaApSgktLFnAi-106" value="" style="edgeStyle=orthogonalEdgeStyle;rounded=0;orthogonalLoop=1;jettySize=auto;html=1;fontSize=22;" edge="1" parent="YIsgDD-WaApSgktLFnAi-135" source="YIsgDD-WaApSgktLFnAi-72" target="YIsgDD-WaApSgktLFnAi-105">
          <mxGeometry relative="1" as="geometry" />
        </mxCell>
        <mxCell id="YIsgDD-WaApSgktLFnAi-107" value="Recovery 失败" style="ellipse;whiteSpace=wrap;html=1;strokeWidth=2;" vertex="1" parent="YIsgDD-WaApSgktLFnAi-135">
          <mxGeometry x="15" y="690" width="120" height="60" as="geometry" />
        </mxCell>
        <mxCell id="YIsgDD-WaApSgktLFnAi-108" value="" style="edgeStyle=orthogonalEdgeStyle;rounded=0;orthogonalLoop=1;jettySize=auto;html=1;fontSize=22;" edge="1" parent="YIsgDD-WaApSgktLFnAi-135" source="YIsgDD-WaApSgktLFnAi-105" target="YIsgDD-WaApSgktLFnAi-107">
          <mxGeometry relative="1" as="geometry" />
        </mxCell>
        <mxCell id="YIsgDD-WaApSgktLFnAi-109" value="获取备份分区当前块数据A" style="whiteSpace=wrap;html=1;strokeWidth=2;" vertex="1" parent="YIsgDD-WaApSgktLFnAi-135">
          <mxGeometry x="211" y="110" width="120" height="60" as="geometry" />
        </mxCell>
        <mxCell id="YIsgDD-WaApSgktLFnAi-110" value="" style="edgeStyle=orthogonalEdgeStyle;rounded=0;orthogonalLoop=1;jettySize=auto;html=1;fontSize=22;" edge="1" parent="YIsgDD-WaApSgktLFnAi-135" source="YIsgDD-WaApSgktLFnAi-105" target="YIsgDD-WaApSgktLFnAi-109">
          <mxGeometry relative="1" as="geometry" />
        </mxCell>
        <mxCell id="YIsgDD-WaApSgktLFnAi-111" value="是" style="text;html=1;align=center;verticalAlign=middle;resizable=0;points=[];autosize=1;strokeColor=none;fillColor=none;fontSize=13;" vertex="1" parent="YIsgDD-WaApSgktLFnAi-135">
          <mxGeometry x="166" y="115" width="30" height="20" as="geometry" />
        </mxCell>
        <mxCell id="YIsgDD-WaApSgktLFnAi-121" style="edgeStyle=orthogonalEdgeStyle;rounded=0;orthogonalLoop=1;jettySize=auto;html=1;exitX=0;exitY=0.5;exitDx=0;exitDy=0;entryX=0.5;entryY=0;entryDx=0;entryDy=0;fontSize=22;" edge="1" parent="YIsgDD-WaApSgktLFnAi-135" source="YIsgDD-WaApSgktLFnAi-113" target="YIsgDD-WaApSgktLFnAi-107">
          <mxGeometry relative="1" as="geometry" />
        </mxCell>
        <mxCell id="YIsgDD-WaApSgktLFnAi-113" value="哈希值正确？" style="rhombus;whiteSpace=wrap;html=1;strokeWidth=2;" vertex="1" parent="YIsgDD-WaApSgktLFnAi-135">
          <mxGeometry x="196" y="330" width="150" height="80" as="geometry" />
        </mxCell>
        <mxCell id="YIsgDD-WaApSgktLFnAi-118" style="edgeStyle=orthogonalEdgeStyle;rounded=0;orthogonalLoop=1;jettySize=auto;html=1;exitX=0.5;exitY=1;exitDx=0;exitDy=0;entryX=0.5;entryY=0;entryDx=0;entryDy=0;fontSize=22;" edge="1" parent="YIsgDD-WaApSgktLFnAi-135" source="YIsgDD-WaApSgktLFnAi-116" target="YIsgDD-WaApSgktLFnAi-113">
          <mxGeometry relative="1" as="geometry" />
        </mxCell>
        <mxCell id="YIsgDD-WaApSgktLFnAi-116" value="&lt;span style=&quot;&quot;&gt;计算A block 哈希值&lt;/span&gt;" style="whiteSpace=wrap;html=1;strokeWidth=2;" vertex="1" parent="YIsgDD-WaApSgktLFnAi-135">
          <mxGeometry x="211" y="220" width="120" height="60" as="geometry" />
        </mxCell>
        <mxCell id="YIsgDD-WaApSgktLFnAi-117" value="" style="edgeStyle=orthogonalEdgeStyle;rounded=0;orthogonalLoop=1;jettySize=auto;html=1;fontSize=22;" edge="1" parent="YIsgDD-WaApSgktLFnAi-135" source="YIsgDD-WaApSgktLFnAi-109" target="YIsgDD-WaApSgktLFnAi-116">
          <mxGeometry relative="1" as="geometry" />
        </mxCell>
        <mxCell id="YIsgDD-WaApSgktLFnAi-119" value="使用A block data 覆盖分区对应block内容与DDR 对应page内容" style="whiteSpace=wrap;html=1;strokeWidth=2;" vertex="1" parent="YIsgDD-WaApSgktLFnAi-135">
          <mxGeometry x="211" y="460" width="120" height="60" as="geometry" />
        </mxCell>
        <mxCell id="YIsgDD-WaApSgktLFnAi-120" value="" style="edgeStyle=orthogonalEdgeStyle;rounded=0;orthogonalLoop=1;jettySize=auto;html=1;fontSize=22;" edge="1" parent="YIsgDD-WaApSgktLFnAi-135" source="YIsgDD-WaApSgktLFnAi-113" target="YIsgDD-WaApSgktLFnAi-119">
          <mxGeometry relative="1" as="geometry" />
        </mxCell>
        <mxCell id="YIsgDD-WaApSgktLFnAi-126" style="edgeStyle=orthogonalEdgeStyle;rounded=0;orthogonalLoop=1;jettySize=auto;html=1;exitX=0;exitY=0.5;exitDx=0;exitDy=0;entryX=0.5;entryY=0;entryDx=0;entryDy=0;fontSize=22;" edge="1" parent="YIsgDD-WaApSgktLFnAi-135" source="YIsgDD-WaApSgktLFnAi-124" target="YIsgDD-WaApSgktLFnAi-107">
          <mxGeometry relative="1" as="geometry" />
        </mxCell>
        <mxCell id="YIsgDD-WaApSgktLFnAi-124" value="覆写正常？" style="rhombus;whiteSpace=wrap;html=1;strokeWidth=2;" vertex="1" parent="YIsgDD-WaApSgktLFnAi-135">
          <mxGeometry x="196" y="560" width="150" height="80" as="geometry" />
        </mxCell>
        <mxCell id="YIsgDD-WaApSgktLFnAi-125" value="" style="edgeStyle=orthogonalEdgeStyle;rounded=0;orthogonalLoop=1;jettySize=auto;html=1;fontSize=22;" edge="1" parent="YIsgDD-WaApSgktLFnAi-135" source="YIsgDD-WaApSgktLFnAi-119" target="YIsgDD-WaApSgktLFnAi-124">
          <mxGeometry relative="1" as="geometry" />
        </mxCell>
        <mxCell id="YIsgDD-WaApSgktLFnAi-127" value="Recovery成功" style="ellipse;whiteSpace=wrap;html=1;strokeWidth=2;" vertex="1" parent="YIsgDD-WaApSgktLFnAi-135">
          <mxGeometry x="211" y="690" width="120" height="60" as="geometry" />
        </mxCell>
        <mxCell id="YIsgDD-WaApSgktLFnAi-128" value="" style="edgeStyle=orthogonalEdgeStyle;rounded=0;orthogonalLoop=1;jettySize=auto;html=1;fontSize=22;" edge="1" parent="YIsgDD-WaApSgktLFnAi-135" source="YIsgDD-WaApSgktLFnAi-124" target="YIsgDD-WaApSgktLFnAi-127">
          <mxGeometry relative="1" as="geometry" />
        </mxCell>
        <mxCell id="YIsgDD-WaApSgktLFnAi-130" value="否" style="text;html=1;align=center;verticalAlign=middle;resizable=0;points=[];autosize=1;strokeColor=none;fillColor=none;fontSize=13;" vertex="1" parent="YIsgDD-WaApSgktLFnAi-135">
          <mxGeometry x="111" y="345" width="30" height="20" as="geometry" />
        </mxCell>
        <mxCell id="YIsgDD-WaApSgktLFnAi-131" value="否" style="text;html=1;align=center;verticalAlign=middle;resizable=0;points=[];autosize=1;strokeColor=none;fillColor=none;fontSize=13;" vertex="1" parent="YIsgDD-WaApSgktLFnAi-135">
          <mxGeometry x="81" y="210" width="30" height="20" as="geometry" />
        </mxCell>
        <mxCell id="YIsgDD-WaApSgktLFnAi-132" value="是" style="text;html=1;align=center;verticalAlign=middle;resizable=0;points=[];autosize=1;strokeColor=none;fillColor=none;fontSize=13;" vertex="1" parent="YIsgDD-WaApSgktLFnAi-135">
          <mxGeometry x="271" y="420" width="30" height="20" as="geometry" />
        </mxCell>
        <mxCell id="YIsgDD-WaApSgktLFnAi-133" value="是" style="text;html=1;align=center;verticalAlign=middle;resizable=0;points=[];autosize=1;strokeColor=none;fillColor=none;fontSize=13;" vertex="1" parent="YIsgDD-WaApSgktLFnAi-135">
          <mxGeometry x="271" y="650" width="30" height="20" as="geometry" />
        </mxCell>
        <mxCell id="YIsgDD-WaApSgktLFnAi-134" value="否" style="text;html=1;align=center;verticalAlign=middle;resizable=0;points=[];autosize=1;strokeColor=none;fillColor=none;fontSize=13;" vertex="1" parent="YIsgDD-WaApSgktLFnAi-135">
          <mxGeometry x="111" y="580" width="30" height="20" as="geometry" />
        </mxCell>
        <mxCell id="YIsgDD-WaApSgktLFnAi-136" value="&lt;span style=&quot;font-size: 22px;&quot;&gt;Recovery 主分区流程&lt;/span&gt;" style="text;html=1;align=center;verticalAlign=middle;resizable=0;points=[];autosize=1;strokeColor=none;fillColor=none;strokeWidth=2;" vertex="1" parent="1">
          <mxGeometry x="1150" y="1060" width="220" height="20" as="geometry" />
        </mxCell>
        <mxCell id="YIsgDD-WaApSgktLFnAi-171" value="&lt;span style=&quot;font-size: 22px;&quot;&gt;Recovery 备份分区流程&lt;/span&gt;" style="text;html=1;align=center;verticalAlign=middle;resizable=0;points=[];autosize=1;strokeColor=none;fillColor=none;strokeWidth=2;" vertex="1" parent="1">
          <mxGeometry x="1845" y="1060" width="250" height="20" as="geometry" />
        </mxCell>
        <mxCell id="YIsgDD-WaApSgktLFnAi-172" value="" style="group" vertex="1" connectable="0" parent="1">
          <mxGeometry x="27" y="190" width="800" height="770" as="geometry" />
        </mxCell>
        <mxCell id="YIsgDD-WaApSgktLFnAi-67" value="" style="rounded=0;whiteSpace=wrap;html=1;dashed=1;fillColor=none;strokeColor=#82b366;strokeWidth=3;" vertex="1" parent="YIsgDD-WaApSgktLFnAi-172">
          <mxGeometry x="260" y="350" width="160" height="120" as="geometry" />
        </mxCell>
        <mxCell id="YIsgDD-WaApSgktLFnAi-24" value="Verity verify io start" style="strokeWidth=2;html=1;shape=mxgraph.flowchart.start_1;whiteSpace=wrap;" vertex="1" parent="YIsgDD-WaApSgktLFnAi-172">
          <mxGeometry x="104" width="100" height="60" as="geometry" />
        </mxCell>
        <mxCell id="YIsgDD-WaApSgktLFnAi-39" value="" style="edgeStyle=orthogonalEdgeStyle;rounded=0;orthogonalLoop=1;jettySize=auto;html=1;entryX=0.5;entryY=0;entryDx=0;entryDy=0;" edge="1" parent="YIsgDD-WaApSgktLFnAi-172" source="YIsgDD-WaApSgktLFnAi-25">
          <mxGeometry relative="1" as="geometry">
            <mxPoint x="154" y="590" as="targetPoint" />
          </mxGeometry>
        </mxCell>
        <mxCell id="YIsgDD-WaApSgktLFnAi-25" value="Block校验&lt;br&gt;正确？" style="rhombus;whiteSpace=wrap;html=1;strokeWidth=2;" vertex="1" parent="YIsgDD-WaApSgktLFnAi-172">
          <mxGeometry x="89" y="380" width="130" height="80" as="geometry" />
        </mxCell>
        <mxCell id="YIsgDD-WaApSgktLFnAi-34" value="" style="edgeStyle=orthogonalEdgeStyle;rounded=0;orthogonalLoop=1;jettySize=auto;html=1;" edge="1" parent="YIsgDD-WaApSgktLFnAi-172" source="YIsgDD-WaApSgktLFnAi-31" target="YIsgDD-WaApSgktLFnAi-25">
          <mxGeometry relative="1" as="geometry" />
        </mxCell>
        <mxCell id="YIsgDD-WaApSgktLFnAi-37" value="" style="edgeStyle=orthogonalEdgeStyle;rounded=0;orthogonalLoop=1;jettySize=auto;html=1;entryX=0.5;entryY=0;entryDx=0;entryDy=0;" edge="1" parent="YIsgDD-WaApSgktLFnAi-172" source="YIsgDD-WaApSgktLFnAi-31">
          <mxGeometry relative="1" as="geometry">
            <mxPoint x="154" y="590" as="targetPoint" />
            <Array as="points">
              <mxPoint x="30" y="280" />
              <mxPoint x="30" y="550" />
              <mxPoint x="154" y="550" />
            </Array>
          </mxGeometry>
        </mxCell>
        <mxCell id="YIsgDD-WaApSgktLFnAi-31" value="Block已校验？" style="rhombus;whiteSpace=wrap;html=1;strokeWidth=2;" vertex="1" parent="YIsgDD-WaApSgktLFnAi-172">
          <mxGeometry x="89" y="240" width="130" height="80" as="geometry" />
        </mxCell>
        <mxCell id="YIsgDD-WaApSgktLFnAi-35" value="否" style="text;html=1;align=center;verticalAlign=middle;resizable=0;points=[];autosize=1;strokeColor=none;fillColor=none;" vertex="1" parent="YIsgDD-WaApSgktLFnAi-172">
          <mxGeometry x="150" y="330" width="30" height="20" as="geometry" />
        </mxCell>
        <mxCell id="YIsgDD-WaApSgktLFnAi-38" value="是" style="text;html=1;align=center;verticalAlign=middle;resizable=0;points=[];autosize=1;strokeColor=none;fillColor=none;" vertex="1" parent="YIsgDD-WaApSgktLFnAi-172">
          <mxGeometry x="40" y="260" width="30" height="20" as="geometry" />
        </mxCell>
        <mxCell id="YIsgDD-WaApSgktLFnAi-40" value="是" style="text;html=1;align=center;verticalAlign=middle;resizable=0;points=[];autosize=1;strokeColor=none;fillColor=none;" vertex="1" parent="YIsgDD-WaApSgktLFnAi-172">
          <mxGeometry x="150" y="470" width="30" height="20" as="geometry" />
        </mxCell>
        <mxCell id="YIsgDD-WaApSgktLFnAi-41" value="否" style="text;html=1;align=center;verticalAlign=middle;resizable=0;points=[];autosize=1;strokeColor=none;fillColor=none;" vertex="1" parent="YIsgDD-WaApSgktLFnAi-172">
          <mxGeometry x="230" y="400" width="30" height="20" as="geometry" />
        </mxCell>
        <mxCell id="YIsgDD-WaApSgktLFnAi-52" style="edgeStyle=orthogonalEdgeStyle;rounded=0;orthogonalLoop=1;jettySize=auto;html=1;exitX=0.5;exitY=1;exitDx=0;exitDy=0;entryX=0.5;entryY=0;entryDx=0;entryDy=0;" edge="1" parent="YIsgDD-WaApSgktLFnAi-172" source="YIsgDD-WaApSgktLFnAi-42">
          <mxGeometry relative="1" as="geometry">
            <mxPoint x="154" y="590" as="targetPoint" />
          </mxGeometry>
        </mxCell>
        <mxCell id="YIsgDD-WaApSgktLFnAi-42" value="Recovery成功？" style="rhombus;whiteSpace=wrap;html=1;strokeWidth=2;" vertex="1" parent="YIsgDD-WaApSgktLFnAi-172">
          <mxGeometry x="280" y="380" width="130" height="80" as="geometry" />
        </mxCell>
        <mxCell id="YIsgDD-WaApSgktLFnAi-28" value="" style="edgeStyle=orthogonalEdgeStyle;rounded=0;orthogonalLoop=1;jettySize=auto;html=1;entryX=0;entryY=0.5;entryDx=0;entryDy=0;" edge="1" parent="YIsgDD-WaApSgktLFnAi-172" source="YIsgDD-WaApSgktLFnAi-25" target="YIsgDD-WaApSgktLFnAi-42">
          <mxGeometry relative="1" as="geometry">
            <mxPoint x="324" y="420" as="targetPoint" />
          </mxGeometry>
        </mxCell>
        <mxCell id="YIsgDD-WaApSgktLFnAi-44" value="FEC 正确？" style="rhombus;whiteSpace=wrap;html=1;strokeWidth=2;" vertex="1" parent="YIsgDD-WaApSgktLFnAi-172">
          <mxGeometry x="460" y="380" width="130" height="80" as="geometry" />
        </mxCell>
        <mxCell id="YIsgDD-WaApSgktLFnAi-45" value="" style="edgeStyle=orthogonalEdgeStyle;rounded=0;orthogonalLoop=1;jettySize=auto;html=1;" edge="1" parent="YIsgDD-WaApSgktLFnAi-172" source="YIsgDD-WaApSgktLFnAi-42" target="YIsgDD-WaApSgktLFnAi-44">
          <mxGeometry relative="1" as="geometry" />
        </mxCell>
        <mxCell id="YIsgDD-WaApSgktLFnAi-46" value="否" style="text;html=1;align=center;verticalAlign=middle;resizable=0;points=[];autosize=1;strokeColor=none;fillColor=none;" vertex="1" parent="YIsgDD-WaApSgktLFnAi-172">
          <mxGeometry x="420" y="400" width="30" height="20" as="geometry" />
        </mxCell>
        <mxCell id="YIsgDD-WaApSgktLFnAi-48" value="是" style="text;html=1;align=center;verticalAlign=middle;resizable=0;points=[];autosize=1;strokeColor=none;fillColor=none;" vertex="1" parent="YIsgDD-WaApSgktLFnAi-172">
          <mxGeometry x="350" y="470" width="30" height="20" as="geometry" />
        </mxCell>
        <mxCell id="YIsgDD-WaApSgktLFnAi-49" value="Handle error" style="ellipse;whiteSpace=wrap;html=1;strokeWidth=2;" vertex="1" parent="YIsgDD-WaApSgktLFnAi-172">
          <mxGeometry x="550" y="590" width="120" height="60" as="geometry" />
        </mxCell>
        <mxCell id="YIsgDD-WaApSgktLFnAi-57" style="edgeStyle=orthogonalEdgeStyle;rounded=0;orthogonalLoop=1;jettySize=auto;html=1;exitX=1;exitY=0.5;exitDx=0;exitDy=0;" edge="1" parent="YIsgDD-WaApSgktLFnAi-172" source="YIsgDD-WaApSgktLFnAi-44" target="YIsgDD-WaApSgktLFnAi-49">
          <mxGeometry relative="1" as="geometry">
            <Array as="points">
              <mxPoint x="610" y="420" />
            </Array>
          </mxGeometry>
        </mxCell>
        <mxCell id="YIsgDD-WaApSgktLFnAi-51" value="否" style="text;html=1;align=center;verticalAlign=middle;resizable=0;points=[];autosize=1;strokeColor=none;fillColor=none;" vertex="1" parent="YIsgDD-WaApSgktLFnAi-172">
          <mxGeometry x="610" y="470" width="30" height="20" as="geometry" />
        </mxCell>
        <mxCell id="YIsgDD-WaApSgktLFnAi-54" value="是" style="text;html=1;align=center;verticalAlign=middle;resizable=0;points=[];autosize=1;strokeColor=none;fillColor=none;" vertex="1" parent="YIsgDD-WaApSgktLFnAi-172">
          <mxGeometry x="540" y="470" width="30" height="20" as="geometry" />
        </mxCell>
        <mxCell id="YIsgDD-WaApSgktLFnAi-60" value="" style="edgeStyle=orthogonalEdgeStyle;rounded=0;orthogonalLoop=1;jettySize=auto;html=1;" edge="1" parent="YIsgDD-WaApSgktLFnAi-172" source="YIsgDD-WaApSgktLFnAi-58" target="YIsgDD-WaApSgktLFnAi-31">
          <mxGeometry relative="1" as="geometry" />
        </mxCell>
        <mxCell id="YIsgDD-WaApSgktLFnAi-58" value="所有block&lt;br&gt;校验完成？" style="rhombus;whiteSpace=wrap;html=1;strokeWidth=2;" vertex="1" parent="YIsgDD-WaApSgktLFnAi-172">
          <mxGeometry x="89" y="110" width="130" height="80" as="geometry" />
        </mxCell>
        <mxCell id="YIsgDD-WaApSgktLFnAi-59" value="" style="edgeStyle=orthogonalEdgeStyle;rounded=0;orthogonalLoop=1;jettySize=auto;html=1;" edge="1" parent="YIsgDD-WaApSgktLFnAi-172" source="YIsgDD-WaApSgktLFnAi-24" target="YIsgDD-WaApSgktLFnAi-58">
          <mxGeometry relative="1" as="geometry" />
        </mxCell>
        <mxCell id="YIsgDD-WaApSgktLFnAi-61" value="否" style="text;html=1;align=center;verticalAlign=middle;resizable=0;points=[];autosize=1;strokeColor=none;fillColor=none;" vertex="1" parent="YIsgDD-WaApSgktLFnAi-172">
          <mxGeometry x="150" y="200" width="30" height="20" as="geometry" />
        </mxCell>
        <mxCell id="YIsgDD-WaApSgktLFnAi-63" style="edgeStyle=orthogonalEdgeStyle;rounded=0;orthogonalLoop=1;jettySize=auto;html=1;entryX=0.5;entryY=0;entryDx=0;entryDy=0;exitX=0.5;exitY=1;exitDx=0;exitDy=0;" edge="1" parent="YIsgDD-WaApSgktLFnAi-172" source="YIsgDD-WaApSgktLFnAi-139" target="YIsgDD-WaApSgktLFnAi-58">
          <mxGeometry relative="1" as="geometry">
            <mxPoint x="20" y="770" as="sourcePoint" />
            <Array as="points">
              <mxPoint x="154" y="770" />
              <mxPoint y="770" />
              <mxPoint y="90" />
              <mxPoint x="154" y="90" />
            </Array>
          </mxGeometry>
        </mxCell>
        <mxCell id="YIsgDD-WaApSgktLFnAi-62" value="检验成功，当前block标记为已校验" style="whiteSpace=wrap;html=1;" vertex="1" parent="YIsgDD-WaApSgktLFnAi-172">
          <mxGeometry x="94" y="590" width="120" height="60" as="geometry" />
        </mxCell>
        <mxCell id="YIsgDD-WaApSgktLFnAi-53" style="edgeStyle=orthogonalEdgeStyle;rounded=0;orthogonalLoop=1;jettySize=auto;html=1;exitX=0.5;exitY=1;exitDx=0;exitDy=0;entryX=0.5;entryY=0;entryDx=0;entryDy=0;" edge="1" parent="YIsgDD-WaApSgktLFnAi-172" source="YIsgDD-WaApSgktLFnAi-44" target="YIsgDD-WaApSgktLFnAi-62">
          <mxGeometry relative="1" as="geometry">
            <mxPoint x="154" y="590" as="targetPoint" />
          </mxGeometry>
        </mxCell>
        <mxCell id="YIsgDD-WaApSgktLFnAi-65" value="Verify ok" style="ellipse;whiteSpace=wrap;html=1;strokeWidth=2;" vertex="1" parent="YIsgDD-WaApSgktLFnAi-172">
          <mxGeometry x="680" y="590" width="120" height="60" as="geometry" />
        </mxCell>
        <mxCell id="YIsgDD-WaApSgktLFnAi-64" style="edgeStyle=orthogonalEdgeStyle;rounded=0;orthogonalLoop=1;jettySize=auto;html=1;exitX=1;exitY=0.5;exitDx=0;exitDy=0;entryX=0.5;entryY=0;entryDx=0;entryDy=0;" edge="1" parent="YIsgDD-WaApSgktLFnAi-172" source="YIsgDD-WaApSgktLFnAi-58" target="YIsgDD-WaApSgktLFnAi-65">
          <mxGeometry relative="1" as="geometry">
            <mxPoint x="740" y="590" as="targetPoint" />
          </mxGeometry>
        </mxCell>
        <mxCell id="YIsgDD-WaApSgktLFnAi-66" value="是" style="text;html=1;align=center;verticalAlign=middle;resizable=0;points=[];autosize=1;strokeColor=none;fillColor=none;" vertex="1" parent="YIsgDD-WaApSgktLFnAi-172">
          <mxGeometry x="420" y="130" width="30" height="20" as="geometry" />
        </mxCell>
        <mxCell id="YIsgDD-WaApSgktLFnAi-68" value="分区恢复功能添加内容" style="text;html=1;align=center;verticalAlign=middle;resizable=0;points=[];autosize=1;strokeColor=none;fillColor=none;" vertex="1" parent="YIsgDD-WaApSgktLFnAi-172">
          <mxGeometry x="275" y="360" width="140" height="20" as="geometry" />
        </mxCell>
        <mxCell id="YIsgDD-WaApSgktLFnAi-139" value="主分区校验正常，校验并恢复备份分区" style="whiteSpace=wrap;html=1;" vertex="1" parent="YIsgDD-WaApSgktLFnAi-172">
          <mxGeometry x="94" y="680" width="120" height="60" as="geometry" />
        </mxCell>
        <mxCell id="YIsgDD-WaApSgktLFnAi-140" value="" style="edgeStyle=orthogonalEdgeStyle;rounded=0;orthogonalLoop=1;jettySize=auto;html=1;fontSize=13;strokeColor=#000000;strokeWidth=1;" edge="1" parent="YIsgDD-WaApSgktLFnAi-172" source="YIsgDD-WaApSgktLFnAi-62" target="YIsgDD-WaApSgktLFnAi-139">
          <mxGeometry relative="1" as="geometry" />
        </mxCell>
        <mxCell id="YIsgDD-WaApSgktLFnAi-144" value="" style="rounded=0;whiteSpace=wrap;html=1;dashed=1;fillColor=none;strokeColor=#FF0000;strokeWidth=3;" vertex="1" parent="YIsgDD-WaApSgktLFnAi-172">
          <mxGeometry x="80" y="670" width="150" height="80" as="geometry" />
        </mxCell>
        <mxCell id="YIsgDD-WaApSgktLFnAi-173" value="" style="group" vertex="1" connectable="0" parent="1">
          <mxGeometry x="1770" y="180" width="346" height="630" as="geometry" />
        </mxCell>
        <mxCell id="YIsgDD-WaApSgktLFnAi-146" value="Check &amp;amp; Recovery start" style="strokeWidth=2;html=1;shape=mxgraph.flowchart.start_1;whiteSpace=wrap;strokeColor=#FF0000;" vertex="1" parent="YIsgDD-WaApSgktLFnAi-173">
          <mxGeometry x="25" width="100" height="60" as="geometry" />
        </mxCell>
        <mxCell id="YIsgDD-WaApSgktLFnAi-147" value="存在备份分区？" style="rhombus;whiteSpace=wrap;html=1;strokeWidth=2;" vertex="1" parent="YIsgDD-WaApSgktLFnAi-173">
          <mxGeometry y="100" width="150" height="80" as="geometry" />
        </mxCell>
        <mxCell id="YIsgDD-WaApSgktLFnAi-148" value="" style="edgeStyle=orthogonalEdgeStyle;rounded=0;orthogonalLoop=1;jettySize=auto;html=1;fontSize=22;" edge="1" parent="YIsgDD-WaApSgktLFnAi-173" source="YIsgDD-WaApSgktLFnAi-146" target="YIsgDD-WaApSgktLFnAi-147">
          <mxGeometry relative="1" as="geometry" />
        </mxCell>
        <mxCell id="YIsgDD-WaApSgktLFnAi-149" value="End" style="ellipse;whiteSpace=wrap;html=1;strokeWidth=2;" vertex="1" parent="YIsgDD-WaApSgktLFnAi-173">
          <mxGeometry x="15" y="570" width="120" height="60" as="geometry" />
        </mxCell>
        <mxCell id="YIsgDD-WaApSgktLFnAi-150" value="" style="edgeStyle=orthogonalEdgeStyle;rounded=0;orthogonalLoop=1;jettySize=auto;html=1;fontSize=22;" edge="1" parent="YIsgDD-WaApSgktLFnAi-173" source="YIsgDD-WaApSgktLFnAi-147" target="YIsgDD-WaApSgktLFnAi-149">
          <mxGeometry relative="1" as="geometry" />
        </mxCell>
        <mxCell id="YIsgDD-WaApSgktLFnAi-151" value="获取备份分区当前块数据A" style="whiteSpace=wrap;html=1;strokeWidth=2;" vertex="1" parent="YIsgDD-WaApSgktLFnAi-173">
          <mxGeometry x="211" y="110" width="120" height="60" as="geometry" />
        </mxCell>
        <mxCell id="YIsgDD-WaApSgktLFnAi-152" value="" style="edgeStyle=orthogonalEdgeStyle;rounded=0;orthogonalLoop=1;jettySize=auto;html=1;fontSize=22;" edge="1" parent="YIsgDD-WaApSgktLFnAi-173" source="YIsgDD-WaApSgktLFnAi-147" target="YIsgDD-WaApSgktLFnAi-151">
          <mxGeometry relative="1" as="geometry" />
        </mxCell>
        <mxCell id="YIsgDD-WaApSgktLFnAi-153" value="是" style="text;html=1;align=center;verticalAlign=middle;resizable=0;points=[];autosize=1;strokeColor=none;fillColor=none;fontSize=13;" vertex="1" parent="YIsgDD-WaApSgktLFnAi-173">
          <mxGeometry x="166" y="120" width="30" height="20" as="geometry" />
        </mxCell>
        <mxCell id="YIsgDD-WaApSgktLFnAi-154" style="edgeStyle=orthogonalEdgeStyle;rounded=0;orthogonalLoop=1;jettySize=auto;html=1;exitX=0;exitY=0.5;exitDx=0;exitDy=0;entryX=0.5;entryY=0;entryDx=0;entryDy=0;fontSize=22;" edge="1" parent="YIsgDD-WaApSgktLFnAi-173" source="YIsgDD-WaApSgktLFnAi-155" target="YIsgDD-WaApSgktLFnAi-149">
          <mxGeometry relative="1" as="geometry" />
        </mxCell>
        <mxCell id="YIsgDD-WaApSgktLFnAi-155" value="哈希值正确？" style="rhombus;whiteSpace=wrap;html=1;strokeWidth=2;" vertex="1" parent="YIsgDD-WaApSgktLFnAi-173">
          <mxGeometry x="196" y="330" width="150" height="80" as="geometry" />
        </mxCell>
        <mxCell id="YIsgDD-WaApSgktLFnAi-156" style="edgeStyle=orthogonalEdgeStyle;rounded=0;orthogonalLoop=1;jettySize=auto;html=1;exitX=0.5;exitY=1;exitDx=0;exitDy=0;entryX=0.5;entryY=0;entryDx=0;entryDy=0;fontSize=22;" edge="1" parent="YIsgDD-WaApSgktLFnAi-173" source="YIsgDD-WaApSgktLFnAi-157" target="YIsgDD-WaApSgktLFnAi-155">
          <mxGeometry relative="1" as="geometry" />
        </mxCell>
        <mxCell id="YIsgDD-WaApSgktLFnAi-157" value="&lt;span style=&quot;&quot;&gt;计算A block 哈希值&lt;/span&gt;" style="whiteSpace=wrap;html=1;strokeWidth=2;" vertex="1" parent="YIsgDD-WaApSgktLFnAi-173">
          <mxGeometry x="211" y="220" width="120" height="60" as="geometry" />
        </mxCell>
        <mxCell id="YIsgDD-WaApSgktLFnAi-158" value="" style="edgeStyle=orthogonalEdgeStyle;rounded=0;orthogonalLoop=1;jettySize=auto;html=1;fontSize=22;" edge="1" parent="YIsgDD-WaApSgktLFnAi-173" source="YIsgDD-WaApSgktLFnAi-151" target="YIsgDD-WaApSgktLFnAi-157">
          <mxGeometry relative="1" as="geometry" />
        </mxCell>
        <mxCell id="YIsgDD-WaApSgktLFnAi-159" value="使用主分区当前块覆盖备份分区当前块" style="whiteSpace=wrap;html=1;strokeWidth=2;" vertex="1" parent="YIsgDD-WaApSgktLFnAi-173">
          <mxGeometry x="211" y="460" width="120" height="60" as="geometry" />
        </mxCell>
        <mxCell id="YIsgDD-WaApSgktLFnAi-160" value="" style="edgeStyle=orthogonalEdgeStyle;rounded=0;orthogonalLoop=1;jettySize=auto;html=1;fontSize=22;" edge="1" parent="YIsgDD-WaApSgktLFnAi-173" source="YIsgDD-WaApSgktLFnAi-155" target="YIsgDD-WaApSgktLFnAi-159">
          <mxGeometry relative="1" as="geometry" />
        </mxCell>
        <mxCell id="YIsgDD-WaApSgktLFnAi-163" value="" style="edgeStyle=orthogonalEdgeStyle;rounded=0;orthogonalLoop=1;jettySize=auto;html=1;fontSize=22;entryX=0.5;entryY=0;entryDx=0;entryDy=0;" edge="1" parent="YIsgDD-WaApSgktLFnAi-173" source="YIsgDD-WaApSgktLFnAi-159" target="YIsgDD-WaApSgktLFnAi-149">
          <mxGeometry relative="1" as="geometry">
            <mxPoint x="271" y="560" as="targetPoint" />
          </mxGeometry>
        </mxCell>
        <mxCell id="YIsgDD-WaApSgktLFnAi-166" value="是" style="text;html=1;align=center;verticalAlign=middle;resizable=0;points=[];autosize=1;strokeColor=none;fillColor=none;fontSize=13;" vertex="1" parent="YIsgDD-WaApSgktLFnAi-173">
          <mxGeometry x="111" y="350" width="30" height="20" as="geometry" />
        </mxCell>
        <mxCell id="YIsgDD-WaApSgktLFnAi-167" value="否" style="text;html=1;align=center;verticalAlign=middle;resizable=0;points=[];autosize=1;strokeColor=none;fillColor=none;fontSize=13;" vertex="1" parent="YIsgDD-WaApSgktLFnAi-173">
          <mxGeometry x="70" y="210" width="30" height="20" as="geometry" />
        </mxCell>
        <mxCell id="YIsgDD-WaApSgktLFnAi-168" value="否" style="text;html=1;align=center;verticalAlign=middle;resizable=0;points=[];autosize=1;strokeColor=none;fillColor=none;fontSize=13;" vertex="1" parent="YIsgDD-WaApSgktLFnAi-173">
          <mxGeometry x="268" y="420" width="30" height="20" as="geometry" />
        </mxCell>
      </root>
    </mxGraphModel>
  </diagram>
</mxfile>
